<svg width="30" height="27" viewBox="0 0 30 27" fill="none" xmlns="http://www.w3.org/2000/svg">
<path d="M17.8128 26.8538H17.7894L1.98539 26.7902C1.81307 26.7894 1.64293 26.7515 1.48657 26.679C1.3302 26.6066 1.19128 26.5013 1.07924 26.3704C0.967197 26.2395 0.884676 26.0859 0.837284 25.9202C0.789893 25.7545 0.778743 25.5806 0.804594 25.4102L3.27179 9.40581C3.45375 8.246 3.98538 7.16935 4.79562 6.31976C5.60585 5.47017 6.6561 4.88813 7.80599 4.65141L15.5394 3.07941L18.4794 0.542013C18.7196 0.334443 19.0323 0.230526 19.349 0.253018C19.6657 0.275509 19.9605 0.422576 20.169 0.662013L28.9494 10.8278C29.0524 10.9471 29.1309 11.0854 29.1805 11.235C29.23 11.3846 29.2496 11.5425 29.2382 11.6997C29.2267 11.8569 29.1844 12.0103 29.1136 12.1511C29.0428 12.2919 28.9451 12.4174 28.8258 12.5204L25.761 15.1676L23.2794 22.8698C22.9096 24.0285 22.1804 25.0392 21.1975 25.7556C20.2146 26.4719 19.029 26.8566 17.8128 26.8538ZM3.38879 24.3938L17.799 24.4538H17.8128C18.5216 24.4562 19.2127 24.2326 19.7857 23.8155C20.3587 23.3984 20.7839 22.8094 20.9994 22.1342L23.5794 14.1116C23.6475 13.902 23.7721 13.7151 23.9394 13.5716L26.3502 11.489L19.1394 3.14061L16.8678 5.10201C16.712 5.23652 16.5241 5.32867 16.3224 5.36961L8.28239 7.00221C7.613 7.14037 7.00166 7.47939 6.52996 7.97404C6.05826 8.46868 5.74863 9.09542 5.64239 9.77061L3.38879 24.3938Z" fill="#26D092"/>
<path d="M24.6656 15.613C24.4937 15.6127 24.3238 15.5755 24.1675 15.5039C24.0112 15.4323 23.8721 15.3279 23.7596 15.1978L14.9612 5.01579C14.8582 4.89653 14.7797 4.75815 14.7301 4.60855C14.6806 4.45895 14.661 4.30106 14.6725 4.14389C14.684 3.98672 14.7263 3.83334 14.797 3.69253C14.8678 3.55171 14.9656 3.42621 15.0848 3.32319C15.2041 3.22016 15.3425 3.14164 15.4921 3.0921C15.6417 3.04255 15.7995 3.02296 15.9567 3.03444C16.1139 3.04591 16.2673 3.08824 16.4081 3.15899C16.5489 3.22974 16.6744 3.32753 16.7774 3.44679L25.5728 13.6288C25.723 13.8027 25.82 14.0161 25.8525 14.2435C25.8849 14.471 25.8514 14.703 25.7559 14.912C25.6603 15.1209 25.5068 15.2981 25.3135 15.4223C25.1203 15.5466 24.8954 15.6128 24.6656 15.613ZM1.99102 26.7904C1.74627 26.7904 1.50736 26.7155 1.30635 26.5759C1.10534 26.4363 0.95184 26.2385 0.866437 26.0091C0.781034 25.7797 0.767813 25.5297 0.828546 25.2926C0.88928 25.0555 1.02106 24.8427 1.20622 24.6826L7.00882 19.6702C7.24967 19.4619 7.56339 19.3578 7.88098 19.3808C8.19858 19.4038 8.49402 19.552 8.70232 19.7929C8.91062 20.0337 9.01472 20.3475 8.99171 20.665C8.9687 20.9826 8.82047 21.2781 8.57962 21.4864L2.77702 26.4988C2.5586 26.6873 2.27956 26.7908 1.99102 26.7904Z" fill="#26D092"/>
</svg>
