<svg width="31" height="31" viewBox="0 0 31 31" fill="none" xmlns="http://www.w3.org/2000/svg">
<g clip-path="url(#clip0_3807_627)">
<path d="M27.8768 22.1392H26.0943V19.6644C26.0943 18.1011 24.8223 16.8291 23.2589 16.8291H15.8606V12.2343H23.7176C25.0271 12.2343 26.0943 11.0488 26.0943 9.59511V3.33889C26.0943 1.88226 25.0271 0.699707 23.7176 0.699707H7.28241C5.97291 0.699707 4.90571 1.88232 4.90571 3.33889V9.59505C4.90571 11.0488 5.97291 12.2342 7.28241 12.2342H15.1394V16.829H7.20456C5.64121 16.829 4.37212 18.101 4.37212 19.6644V22.1391H3.12319C2.06463 22.1391 1.20508 22.9987 1.20508 24.0573V28.3463C1.20508 29.4049 2.06463 30.2644 3.12319 30.2644H7.41226C8.46792 30.2644 9.33037 29.4049 9.33037 28.3463V24.0573C9.33037 22.9987 8.46792 22.1391 7.41226 22.1391H5.09318V19.6644C5.09318 18.4991 6.03928 17.5501 7.20456 17.5501H15.1394V22.1391H13.354C12.2983 22.1391 11.4388 22.9987 11.4388 24.0573V28.3463C11.4388 29.4049 12.2983 30.2644 13.354 30.2644H17.6459C18.7016 30.2644 19.5611 29.4049 19.5611 28.3463V24.0573C19.5611 22.9987 18.7016 22.1391 17.6459 22.1391H15.8605V17.5501H23.2589C24.4242 17.5501 25.3731 18.4991 25.3731 19.6644V22.1391H23.5877C22.5321 22.1391 21.6696 22.9987 21.6696 24.0573V28.3463C21.6696 29.4049 22.532 30.2644 23.5877 30.2644H27.8768C28.9354 30.2644 29.7949 29.4049 29.7949 28.3463V24.0573C29.7949 22.9988 28.9354 22.1392 27.8768 22.1392ZM17.646 22.8603C18.3036 22.8603 18.8401 23.3968 18.8401 24.0573V28.3464C18.8401 29.0069 18.3036 29.5434 17.646 29.5434H13.3541C12.6964 29.5434 12.1599 29.0069 12.1599 28.3464V24.0573C12.1599 23.3968 12.6964 22.8603 13.3541 22.8603H17.646ZM7.28241 11.5132C6.37092 11.5132 5.62678 10.6507 5.62678 9.59505V3.33889C5.62678 2.28033 6.37092 1.42077 7.28241 1.42077H23.7175C24.629 1.42077 25.3731 2.28033 25.3731 3.33889V9.59505C25.3731 10.6507 24.629 11.5132 23.7175 11.5132H7.28241Z" fill="#26D092" stroke="#26D092" stroke-width="0.420673"/>
</g>
<defs>
<clipPath id="clip0_3807_627">
<rect width="30.2885" height="30.2885" fill="white" transform="translate(0.355469 0.337891)"/>
</clipPath>
</defs>
</svg>
