<svg width="40" height="40" viewBox="0 0 40 40" fill="none" xmlns="http://www.w3.org/2000/svg">
<path fill-rule="evenodd" clip-rule="evenodd" d="M12.125 0.3125C5.60115 0.3125 0.3125 5.60115 0.3125 12.125V27.875C0.3125 34.3988 5.60115 39.6875 12.125 39.6875H27.875C34.3988 39.6875 39.6875 34.3988 39.6875 27.875V24.5938H27.2188V15.4062H37.0625V19.3438C37.0625 20.0686 37.6501 20.6562 38.375 20.6562C39.0999 20.6562 39.6875 20.0686 39.6875 19.3438V12.125C39.6875 5.60115 34.3988 0.3125 27.875 0.3125H12.125ZM24.5938 37.0625H15.4062V27.2188H24.5938V37.0625ZM12.7812 37.0625V27.2188H2.9375V27.875C2.9375 32.9491 7.05088 37.0625 12.125 37.0625H12.7812ZM24.5938 24.5938H15.4062V15.4062H24.5938V24.5938ZM12.7812 24.5938V15.4062H2.9375V24.5938H12.7812ZM24.5938 12.7812H15.4062V2.9375H24.5938V12.7812ZM12.7812 12.7812V2.9375H12.125C7.05088 2.9375 2.9375 7.05088 2.9375 12.125V12.7812H12.7812ZM27.2188 12.7812V2.9375H27.875C32.9491 2.9375 37.0625 7.05088 37.0625 12.125V12.7812H27.2188ZM27.2188 37.0625V27.2188H37.0625V27.875C37.0625 32.9491 32.9491 37.0625 27.875 37.0625H27.2188Z" fill="#26D092"/>
</svg>
