<svg width="33" height="33" viewBox="0 0 33 33" fill="none" xmlns="http://www.w3.org/2000/svg">
<g clip-path="url(#clip0_3807_678)">
<path d="M12.4974 32.4916H4.49264C3.43113 32.4916 2.41311 32.0699 1.66251 31.3193C0.911915 30.5688 0.490234 29.5507 0.490234 28.4892V15.4814C0.490234 14.4199 0.911915 13.4019 1.66251 12.6513C2.41311 11.9007 3.43113 11.479 4.49264 11.479H12.4974C13.5589 11.479 14.577 11.9007 15.3276 12.6513C16.0782 13.4019 16.4998 14.4199 16.4998 15.4814V28.4892C16.4998 29.5507 16.0782 30.5688 15.3276 31.3193C14.577 32.0699 13.5589 32.4916 12.4974 32.4916ZM4.49264 13.4802C3.96189 13.4802 3.45287 13.691 3.07757 14.0663C2.70228 14.4416 2.49144 14.9507 2.49144 15.4814V28.4892C2.49144 29.02 2.70228 29.529 3.07757 29.9043C3.45287 30.2796 3.96189 30.4904 4.49264 30.4904H12.4974C13.0282 30.4904 13.5372 30.2796 13.9125 29.9043C14.2878 29.529 14.4986 29.02 14.4986 28.4892V15.4814C14.4986 14.9507 14.2878 14.4416 13.9125 14.0663C13.5372 13.691 13.0282 13.4802 12.4974 13.4802H4.49264Z" fill="#26D092"/>
<path d="M8.49459 29.4899C8.23036 29.4901 7.97677 29.3858 7.78917 29.1997C7.74196 29.1527 7.70002 29.1007 7.66409 29.0446C7.62588 28.9918 7.59398 28.9347 7.56904 28.8745C7.54376 28.8133 7.52531 28.7496 7.514 28.6844C7.4873 28.5557 7.4873 28.4228 7.514 28.2941C7.52461 28.2288 7.54309 28.1649 7.56904 28.104C7.59402 28.0438 7.62592 27.9867 7.66409 27.9339C7.69878 27.8784 7.74085 27.828 7.78917 27.7838C7.97664 27.5975 8.23025 27.4929 8.49459 27.4929C8.75894 27.4929 9.01254 27.5975 9.20001 27.7838C9.38792 27.9706 9.49408 28.2243 9.49519 28.4893C9.4953 28.6213 9.46927 28.752 9.41861 28.874C9.36795 28.9959 9.29366 29.1066 9.20001 29.1997C9.15446 29.245 9.10414 29.2853 9.04992 29.3198C8.99505 29.3575 8.93636 29.3893 8.87482 29.4148C8.81561 29.4407 8.75344 29.4592 8.68971 29.4698C8.62564 29.4839 8.56018 29.4906 8.49459 29.4899ZM28.5066 26.4881H15.4988V24.4869H28.5066C29.0374 24.4869 29.5464 24.276 29.9217 23.9007C30.297 23.5254 30.5078 23.0164 30.5078 22.4857V6.47604C30.5078 5.94528 30.297 5.43627 29.9217 5.06097C29.5464 4.68567 29.0374 4.47483 28.5066 4.47483H8.49459C7.96384 4.47483 7.45483 4.68567 7.07953 5.06097C6.70423 5.43627 6.49339 5.94528 6.49339 6.47604V12.4796H4.49219V6.47604C4.49219 5.41453 4.91387 4.39651 5.66446 3.64591C6.41506 2.89531 7.43309 2.47363 8.49459 2.47363H28.5066C29.5681 2.47363 30.5861 2.89531 31.3367 3.64591C32.0873 4.39651 32.509 5.41453 32.509 6.47604V22.4857C32.509 23.5472 32.0873 24.5652 31.3367 25.3158C30.5861 26.0664 29.5681 26.4881 28.5066 26.4881Z" fill="#26D092"/>
<path d="M18.5005 23.4858C18.2362 23.486 17.9826 23.3817 17.795 23.1956C17.7478 23.1486 17.7059 23.0966 17.67 23.0405C17.6317 22.9877 17.5998 22.9306 17.5749 22.8704C17.5496 22.8093 17.5312 22.7455 17.5199 22.6803C17.5057 22.6162 17.499 22.5508 17.4999 22.4852C17.497 22.3356 17.5277 22.1873 17.5897 22.0512C17.6517 21.9151 17.7434 21.7946 17.8581 21.6986C17.9728 21.6026 18.1076 21.5335 18.2525 21.4965C18.3975 21.4594 18.5489 21.4554 18.6956 21.4846C18.7593 21.4952 18.8215 21.5137 18.8807 21.5396C18.9431 21.5631 19.002 21.5951 19.0558 21.6347C19.11 21.6692 19.1603 21.7094 19.2059 21.7547C19.3019 21.8502 19.3776 21.9641 19.4284 22.0897C19.4791 22.2152 19.5038 22.3498 19.5011 22.4852C19.5085 22.55 19.5085 22.6155 19.5011 22.6803C19.4895 22.7454 19.4711 22.8092 19.446 22.8704C19.4192 22.9297 19.3874 22.9866 19.351 23.0405C19.315 23.0966 19.2731 23.1486 19.2259 23.1956C19.1803 23.2409 19.13 23.2812 19.0758 23.3157C19.022 23.3552 18.9631 23.3872 18.9007 23.4107C18.8415 23.4366 18.7793 23.4551 18.7156 23.4658C18.645 23.4814 18.5727 23.4881 18.5005 23.4858ZM23.5035 30.49H15.4986C15.2333 30.49 14.9788 30.3846 14.7911 30.1969C14.6035 30.0093 14.498 29.7548 14.498 29.4894C14.498 29.224 14.6035 28.9695 14.7911 28.7819C14.9788 28.5942 15.2333 28.4888 15.4986 28.4888H23.5035C23.7688 28.4888 24.0233 28.5942 24.211 28.7819C24.3986 28.9695 24.5041 29.224 24.5041 29.4894C24.5041 29.7548 24.3986 30.0093 24.211 30.1969C24.0233 30.3846 23.7688 30.49 23.5035 30.49Z" fill="#26D092"/>
<path d="M21.5023 30.4904C21.2369 30.4904 20.9824 30.385 20.7947 30.1974C20.6071 30.0097 20.5017 29.7552 20.5017 29.4898V25.4874C20.5017 25.222 20.6071 24.9675 20.7947 24.7799C20.9824 24.5922 21.2369 24.4868 21.5023 24.4868C21.7676 24.4868 22.0221 24.5922 22.2098 24.7799C22.3974 24.9675 22.5029 25.222 22.5029 25.4874V29.4898C22.5029 29.7552 22.3974 30.0097 22.2098 30.1974C22.0221 30.385 21.7676 30.4904 21.5023 30.4904ZM15.4986 30.4904C15.2333 30.4904 14.9788 30.385 14.7911 30.1974C14.6035 30.0097 14.498 29.7552 14.498 29.4898V25.4874C14.498 25.222 14.6035 24.9675 14.7911 24.7799C14.9788 24.5922 15.2333 24.4868 15.4986 24.4868C15.764 24.4868 16.0185 24.5922 16.2062 24.7799C16.3938 24.9675 16.4992 25.222 16.4992 25.4874V29.4898C16.4992 29.7552 16.3938 30.0097 16.2062 30.1974C16.0185 30.385 15.764 30.4904 15.4986 30.4904Z" fill="#26D092"/>
</g>
<defs>
<clipPath id="clip0_3807_678">
<rect width="32.0192" height="32.0192" fill="white" transform="translate(0.490234 0.472168)"/>
</clipPath>
</defs>
</svg>
