<svg width="52" height="53" viewBox="0 0 52 53" fill="none" xmlns="http://www.w3.org/2000/svg">
<path d="M26 48.3101C14.2397 48.3101 4.67188 38.7423 4.67188 26.9819C4.67188 15.2216 14.2397 5.65381 26 5.65381C37.7603 5.65381 47.3281 15.2216 47.3281 26.9819C47.3281 38.7423 37.7603 48.3101 26 48.3101ZM26 7.68506C15.3596 7.68506 6.70312 16.3415 6.70312 26.9819C6.70312 37.6223 15.3596 46.2788 26 46.2788C36.6404 46.2788 45.2969 37.6223 45.2969 26.9819C45.2969 16.3415 36.6404 7.68506 26 7.68506Z" fill="#26D092"/>
<path d="M19.4188 34.5787C19.1535 34.5787 18.894 34.4746 18.7006 34.2812C18.4344 34.015 18.3372 33.6234 18.4482 33.2637L21.5507 23.2038C21.6498 22.8829 21.9009 22.6316 22.2219 22.5327L32.2817 19.4301C32.6415 19.3192 33.033 19.4162 33.2993 19.6825C33.5655 19.9487 33.6626 20.3402 33.5516 20.7L30.4489 30.7598C30.3499 31.0808 30.0987 31.3321 29.7778 31.431L19.7179 34.5336C19.6196 34.5639 19.5189 34.5787 19.4188 34.5787ZM23.3337 24.3155L20.9556 32.0262L28.6663 29.6481L31.0444 21.9374L23.3337 24.3155Z" fill="#26D092"/>
</svg>
