<svg width="44" height="42" viewBox="0 0 44 42" fill="none" xmlns="http://www.w3.org/2000/svg">
<path d="M35.8694 15.5427C35.8694 15.2544 35.9186 14.9662 35.9186 14.6709C35.9186 11.1281 34.5113 7.73051 32.0062 5.22542C29.5011 2.72033 26.1035 1.31299 22.5607 1.31299C19.018 1.31299 15.6204 2.72033 13.1153 5.22542C10.6102 7.73051 9.20285 11.1281 9.20285 14.6709C9.20285 14.7904 9.20285 14.9029 9.20285 15.0154C7.48057 15.7429 5.93021 16.8239 4.65205 18.1884C3.37389 19.5529 2.39639 21.1705 1.78281 22.9366C1.16923 24.7026 0.933217 26.5779 1.09005 28.4409C1.24688 30.304 1.79306 32.1133 2.69326 33.752C3.59345 35.3906 4.82761 36.8221 6.3159 37.9537C7.80418 39.0853 9.51344 39.8919 11.3331 40.3213C13.1528 40.7506 15.0423 40.7932 16.8795 40.4463C18.7166 40.0994 20.4605 39.3707 21.9983 38.3073C23.4935 39.3594 25.1888 40.0933 26.9792 40.4637C28.7696 40.834 30.617 40.8329 32.4069 40.4604C34.1968 40.0878 35.8912 39.3518 37.3852 38.2979C38.8791 37.244 40.1408 35.8947 41.0922 34.3334C42.0435 32.7721 42.6642 31.0321 42.9158 29.2212C43.1675 27.4104 43.0447 25.5671 42.5551 23.8056C42.0655 22.0441 41.2195 20.4018 40.0695 18.9805C38.9195 17.5592 37.49 16.3891 35.8694 15.5427ZM22.5607 2.71908C25.7305 2.71908 28.7705 3.97829 31.0119 6.21968C33.2533 8.46108 34.5125 11.5011 34.5125 14.6709C34.5125 14.7552 34.5125 14.8326 34.5125 14.9169C32.4754 14.0981 30.2669 13.7979 28.0851 14.0433C25.9033 14.2887 23.8166 15.0721 22.0124 16.323C20.3738 15.1838 18.4996 14.4285 16.5291 14.1133C14.5585 13.798 12.5422 13.931 10.63 14.5021C10.6743 11.3653 11.9502 8.37166 14.1822 6.16721C16.4143 3.96277 19.4236 2.7243 22.5607 2.71908ZM21.9983 36.5497C20.6361 35.4291 19.5388 34.0209 18.7852 32.4262C18.0316 30.8314 17.6403 29.0896 17.6394 27.3257C17.6394 27.2414 17.6394 27.164 17.6394 27.0797C20.4125 28.1919 23.4809 28.3307 26.3431 27.4734C26.3252 29.2116 25.927 30.9249 25.1764 32.4929C24.4258 34.0609 23.341 35.4456 21.9983 36.5497ZM22.5607 26.6227C20.9149 26.6203 19.2874 26.278 17.78 25.6173C18.2025 22.6747 19.7065 19.9951 21.9983 18.1017C24.4051 20.0806 25.9439 22.9211 26.2869 26.0181C25.085 26.4168 23.8271 26.6209 22.5607 26.6227ZM16.4583 24.9283C14.8685 23.9851 13.5192 22.6859 12.5164 21.133C11.5137 19.58 10.8848 17.8156 10.6792 15.9785C12.3598 15.4195 14.1445 15.2449 15.9015 15.4676C17.6586 15.6903 19.3432 16.3045 20.8312 17.2651C18.5477 19.2505 17.0059 21.9524 16.4583 24.9283ZM23.1654 17.2651C24.8146 16.2027 26.7014 15.5657 28.6571 15.4111C30.6128 15.2565 32.5763 15.5892 34.3719 16.3793C34.0936 18.3431 33.331 20.2068 32.1528 21.8023C30.9745 23.3979 29.4177 24.6751 27.6227 25.5189C27.1835 22.3193 25.6001 19.3871 23.1654 17.2651ZM14.4054 39.2775C11.6915 39.2707 9.06065 38.3405 6.94567 36.6398C4.8307 34.9391 3.35752 32.5692 2.76843 29.92C2.17935 27.2708 2.50945 24.4999 3.70444 22.0632C4.89942 19.6265 6.88813 17.6691 9.34346 16.5129C9.63335 18.5991 10.4125 20.5871 11.6172 22.3148C12.8219 24.0425 14.4181 25.4608 16.2755 26.4539C16.2755 26.7422 16.2333 27.0304 16.2333 27.3257C16.2335 29.2343 16.6442 31.1205 17.4375 32.8563C18.2309 34.5922 19.3883 36.1371 20.8312 37.3863C18.9165 38.6232 16.6849 39.28 14.4054 39.2775ZM29.5912 39.2775C27.3117 39.28 25.0801 38.6232 23.1654 37.3863C24.6083 36.1371 25.7657 34.5922 26.5591 32.8563C27.3524 31.1205 27.7631 29.2343 27.7633 27.3257C27.7633 27.2062 27.7633 27.0937 27.7633 26.9812C29.8029 26.1142 31.5956 24.7547 32.9808 23.0247C34.3661 21.2947 35.3006 19.2481 35.7007 17.0683C37.9434 18.4095 39.6847 20.4487 40.6581 22.8738C41.6315 25.2989 41.7832 27.9762 41.0901 30.4958C40.397 33.0153 38.8973 35.2383 36.8205 36.8243C34.7437 38.4104 32.2043 39.2721 29.5912 39.2775Z" fill="#26D092"/>
<path d="M22.4062 9.53559C22.7558 9.53559 23.0976 9.43191 23.3883 9.23766C23.679 9.04341 23.9056 8.76732 24.0394 8.4443C24.1732 8.12128 24.2082 7.76583 24.14 7.42292C24.0718 7.08 23.9034 6.76501 23.6562 6.51778C23.409 6.27055 23.094 6.10218 22.751 6.03397C22.4081 5.96576 22.0527 6.00077 21.7297 6.13457C21.4066 6.26837 21.1305 6.49495 20.9363 6.78566C20.742 7.07637 20.6384 7.41816 20.6384 7.76779C20.6397 8.23624 20.8263 8.68514 21.1576 9.01638C21.4888 9.34763 21.9377 9.53429 22.4062 9.53559ZM22.4062 6.98211C22.5616 6.98211 22.7135 7.02819 22.8427 7.11452C22.9719 7.20085 23.0726 7.32356 23.132 7.46713C23.1915 7.61069 23.2071 7.76867 23.1768 7.92107C23.1464 8.07348 23.0716 8.21348 22.9617 8.32336C22.8518 8.43324 22.7119 8.50807 22.5594 8.53838C22.407 8.5687 22.2491 8.55314 22.1055 8.49367C21.9619 8.43421 21.8392 8.3335 21.7529 8.2043C21.6666 8.07509 21.6205 7.92319 21.6205 7.76779C21.6205 7.55942 21.7033 7.35958 21.8506 7.21223C21.9979 7.06489 22.1978 6.98211 22.4062 6.98211ZM20.9821 11.8092C21.0131 11.5238 21.154 11.2617 21.3749 11.0784C21.5958 10.8951 21.8794 10.805 22.1655 10.8271H22.6566C22.9433 10.8049 23.2275 10.8949 23.4491 11.0781C23.6708 11.2613 23.8127 11.5234 23.845 11.8092V12.8748H24.8271V11.8092C24.7966 11.262 24.5516 10.7489 24.1453 10.3812C23.739 10.0135 23.2041 9.82084 22.6566 9.84495H22.1655C21.6189 9.82217 21.0853 10.0155 20.68 10.383C20.2748 10.7506 20.0305 11.2629 20 11.8092V12.8748H20.9821V11.8092Z" fill="#26D092"/>
<path d="M12.0152 27.3257H7.79688V28.7318H12.0152V27.3257Z" fill="#26D092"/>
<path d="M12.0152 29.4348H7.79688V30.8409H12.0152V29.4348Z" fill="#26D092"/>
<path d="M12.0152 31.5439H7.79688V32.95H12.0152V31.5439Z" fill="#26D092"/>
<path d="M35.4211 31.9555C35.6515 31.6569 35.8099 31.3092 35.8839 30.9394C35.958 30.5696 35.9456 30.1877 35.8479 29.8234C35.7502 29.4592 35.5698 29.1224 35.3206 28.8393C35.0715 28.5562 34.7603 28.3344 34.4114 28.1912C34.1123 28.0641 33.7905 27.9991 33.4655 28C33.0109 27.9982 32.5648 28.1229 32.177 28.36C31.7892 28.5972 31.4751 28.9375 31.2696 29.343C31.0953 29.6864 31.003 30.0656 31 30.4508C30.9985 30.814 31.0777 31.1731 31.232 31.5021C31.3863 31.831 31.6117 32.1215 31.8921 32.3525C32.3365 32.715 32.8919 32.914 33.4655 32.9162C33.7884 32.9167 34.1082 32.8534 34.4065 32.7299C34.5046 32.6858 34.5977 32.6368 34.6859 32.5878L35.9995 34.2004C36.0827 34.3005 36.2023 34.3634 36.3319 34.3754C36.4615 34.3873 36.5905 34.3473 36.6906 34.2641C36.7907 34.1809 36.8537 34.0613 36.8656 33.9317C36.8776 33.8021 36.8375 33.6731 36.7543 33.573L35.4211 31.9555ZM32.5195 31.6124C32.274 31.4222 32.0951 31.1592 32.0083 30.861C31.9215 30.5629 31.9313 30.2449 32.0363 29.9527C32.1414 29.6605 32.3362 29.409 32.5929 29.2343C32.8497 29.0597 33.1551 28.9707 33.4655 28.9803C33.6605 28.9808 33.8536 29.0191 34.034 29.093C34.2057 29.1894 34.3562 29.3191 34.4768 29.4747C34.5973 29.6303 34.6854 29.8084 34.7359 29.9987C34.7863 30.1889 34.798 30.3873 34.7703 30.5822C34.7427 30.777 34.6761 30.9644 34.5747 31.133C34.4733 31.3017 34.3391 31.4483 34.18 31.5642C34.0209 31.68 33.8402 31.7627 33.6485 31.8074C33.4568 31.8521 33.2581 31.8579 33.0642 31.8244C32.8703 31.7909 32.685 31.7188 32.5195 31.6124Z" fill="#26D092"/>
</svg>
