<svg width="37" height="37" viewBox="0 0 37 37" fill="none" xmlns="http://www.w3.org/2000/svg">
<g clip-path="url(#clip0_3807_700)">
<path d="M19.3039 7.60983C19.3457 7.56135 19.3863 7.49369 19.3699 7.35896C19.3544 7.23104 19.3181 6.93139 18.4118 6.7826C16.9252 6.53847 16.6639 5.69165 16.6404 5.20864C16.6024 4.42571 17.1175 3.76672 17.9318 3.54062V3.3941C17.9318 3.08048 18.1861 2.82619 18.4997 2.82619C18.8133 2.82619 19.0676 3.08048 19.0676 3.3941V3.53544C19.5926 3.67564 20.0834 4.02619 20.3465 4.65309C20.4679 4.94222 20.332 5.27516 20.0428 5.39655C19.7535 5.51808 19.4207 5.382 19.2993 5.09279C19.0874 4.58813 18.5618 4.55988 18.2846 4.6227C18.1604 4.65089 17.7564 4.77242 17.775 5.15356C17.7799 5.25656 17.7932 5.53001 18.5958 5.66176C19.7551 5.85215 20.3949 6.37704 20.4975 7.22202C20.5493 7.64888 20.4336 8.03988 20.1629 8.35287C19.9081 8.6474 19.517 8.85944 19.0676 8.95634V9.08256C19.0676 9.39619 18.8133 9.65047 18.4997 9.65047C18.1861 9.65047 17.9318 9.39619 17.9318 9.08256V8.94648C17.2198 8.77078 16.6777 8.27052 16.5068 7.58477C16.4309 7.28044 16.6161 6.97221 16.9204 6.89633C17.2248 6.82094 17.533 7.00572 17.6089 7.30998C17.7171 7.744 18.1804 7.88882 18.5448 7.87902C18.8612 7.87157 19.1732 7.76082 19.3039 7.60983ZM6.05327 27.3861C5.2506 27.2544 5.23733 26.9809 5.23236 26.878C5.21383 26.4968 5.61776 26.3753 5.74199 26.3471C6.0192 26.2841 6.54487 26.3125 6.75677 26.8171C6.87816 27.1063 7.21088 27.2423 7.50023 27.1209C7.78944 26.9995 7.92538 26.6666 7.80399 26.3774C7.54077 25.7505 7.05002 25.3999 6.52499 25.2598V25.1185C6.52499 24.8048 6.27071 24.5505 5.95708 24.5505C5.64345 24.5505 5.38917 24.8048 5.38917 25.1185V25.2649C4.57493 25.4911 4.05984 26.15 4.09782 26.9329C4.12132 27.416 4.38256 28.2627 5.8692 28.5069C6.77544 28.6557 6.81178 28.9552 6.82733 29.0832C6.84373 29.218 6.80312 29.2857 6.76124 29.3341C6.63062 29.4851 6.31856 29.5958 6.00223 29.6033C5.63777 29.6144 5.17443 29.4683 5.06617 29.0343C4.99036 28.7299 4.68199 28.5451 4.37773 28.6206C4.0734 28.6965 3.88819 29.0047 3.96408 29.3091C4.13502 29.9947 4.67709 30.495 5.3891 30.6708V30.8068C5.3891 31.1205 5.64338 31.3748 5.95701 31.3748C6.27064 31.3748 6.52492 31.1205 6.52492 30.8068V30.6806C6.97435 30.5837 7.36535 30.3717 7.6202 30.0772C7.89095 29.7642 8.00666 29.3732 7.95484 28.9462C7.85233 28.1014 7.21251 27.5765 6.05327 27.3861ZM36.1049 27.9627C36.1049 30.7542 33.8338 33.0252 31.0423 33.0252C30.0178 33.0252 29.0641 32.7184 28.2663 32.1932C25.5425 34.5144 22.0928 35.7883 18.4997 35.7883C14.9069 35.7883 11.4572 34.5145 8.73323 32.1932C7.93546 32.7184 6.98166 33.0253 5.95715 33.0253C3.1656 33.0253 0.894531 30.7542 0.894531 27.9627C0.894531 25.9901 2.02935 24.2785 3.67977 23.4434C3.51614 22.5472 3.43266 21.6337 3.43266 20.7212C3.43266 17.4677 4.45333 14.3701 6.38429 11.7632C8.18492 9.33237 10.6193 7.52883 13.4457 6.52477C13.4403 6.42993 13.4371 6.33452 13.4371 6.23833C13.4371 3.44685 15.7081 1.17578 18.4996 1.17578C21.2911 1.17578 23.5622 3.44685 23.5622 6.23833C23.5622 6.33452 23.5589 6.42986 23.5536 6.52477C26.3799 7.5289 28.8144 9.33244 30.615 11.7632C32.5459 14.3701 33.5666 17.4677 33.5666 20.7212C33.5666 21.6337 33.4831 22.5472 33.3195 23.4434C34.97 24.2785 36.1049 25.9901 36.1049 27.9627ZM14.5729 6.23833C14.5729 8.40355 16.3344 10.1651 18.4996 10.1651C20.6649 10.1651 22.4264 8.40355 22.4264 6.23833C22.4264 4.07311 20.6649 2.31153 18.4997 2.31153C16.3345 2.31153 14.5729 4.07311 14.5729 6.23833ZM5.95715 31.8895C8.12238 31.8895 9.88389 30.128 9.88389 27.9628C9.88389 25.7975 8.12238 24.036 5.95715 24.036C3.79193 24.036 2.03035 25.7975 2.03035 27.9627C2.03035 30.1279 3.79193 31.8895 5.95715 31.8895ZM18.4997 34.6525C21.7569 34.6525 24.8868 33.5209 27.3814 31.454C26.514 30.5449 25.9797 29.3154 25.9797 27.9628C25.9797 25.1713 28.2508 22.9002 31.0422 22.9002C31.4536 22.9002 31.8531 22.9507 32.2361 23.0437C32.3648 22.2776 32.4309 21.4991 32.4309 20.7213C32.4309 14.8551 28.8099 9.68348 23.3572 7.66144C22.7407 9.76213 20.7971 11.301 18.4997 11.301C16.2023 11.301 14.2586 9.76213 13.6422 7.66144C8.18953 9.68348 4.56855 14.8551 4.56855 20.7213C4.56855 21.4992 4.63456 22.2776 4.76327 23.0437C5.14632 22.9507 5.54592 22.9002 5.95722 22.9002C8.74871 22.9002 11.0198 25.1713 11.0198 27.9628C11.0198 29.3154 10.4854 30.5449 9.6181 31.454C12.1129 33.5208 15.2427 34.6525 18.4997 34.6525ZM34.9691 27.9627C34.9691 25.7975 33.2075 24.0359 31.0423 24.0359C28.8771 24.0359 27.1156 25.7975 27.1156 27.9627C27.1156 30.1279 28.8771 31.8894 31.0423 31.8894C33.2075 31.8894 34.9691 30.1279 34.9691 27.9627ZM31.1384 27.3861C30.3358 27.2544 30.3226 26.9809 30.3176 26.8779C30.2991 26.4968 30.7029 26.3753 30.8272 26.3471C31.1045 26.2843 31.63 26.3125 31.8419 26.8171C31.9633 27.1063 32.2962 27.2423 32.5854 27.1209C32.8746 26.9995 33.0105 26.6666 32.8892 26.3774C32.6259 25.7505 32.1352 25.3999 31.6102 25.2598V25.1185C31.6102 24.8048 31.3559 24.5505 31.0422 24.5505C30.7286 24.5505 30.4743 24.8048 30.4743 25.1185V25.2649C29.6601 25.4911 29.1449 26.15 29.1831 26.9329C29.2065 27.4159 29.4677 28.2627 30.9544 28.5069C31.8607 28.6557 31.897 28.9552 31.9126 29.0832C31.929 29.218 31.8884 29.2857 31.8465 29.3341C31.7159 29.4851 31.4038 29.5958 31.0875 29.6033C30.7236 29.6144 30.2596 29.4683 30.1514 29.0343C30.0756 28.7299 29.7673 28.5451 29.463 28.6206C29.1586 28.6965 28.9734 29.0047 29.0493 29.3091C29.2203 29.9947 29.7623 30.495 30.4743 30.6708V30.8068C30.4743 31.1205 30.7286 31.3748 31.0422 31.3748C31.3559 31.3748 31.6102 31.1205 31.6102 30.8068V30.6806C32.0596 30.5837 32.4506 30.3717 32.7054 30.0772C32.9762 29.7642 33.0919 29.3732 33.0401 28.9462C32.9374 28.1014 32.2976 27.5765 31.1384 27.3861ZM25.7971 16.836V24.6066C25.7971 24.8094 25.6889 24.9969 25.5132 25.0984L18.7837 28.9836C18.6958 29.0343 18.5977 29.0597 18.4997 29.0597C18.4017 29.0597 18.3036 29.0343 18.2157 28.9836L11.4863 25.0984C11.3106 24.9969 11.2024 24.8095 11.2024 24.6066V16.836C11.2024 16.6331 11.3106 16.4456 11.4863 16.3442L18.2157 12.459C18.3915 12.3575 18.6079 12.3575 18.7837 12.459L25.5131 16.3442C25.6889 16.4456 25.7971 16.6331 25.7971 16.836ZM24.0934 16.836L22.8402 16.1125L17.2465 19.342L18.4997 20.0656L24.0934 16.836ZM16.1108 18.6863L21.7044 15.4567L20.8887 14.9857L15.295 18.2152L16.1108 18.6863ZM14.7272 20.9472L15.5429 21.4182V19.6699L14.7272 19.1989V20.9472ZM12.9061 16.836L14.1592 17.5595L19.7529 14.33L18.4997 13.6065L12.9061 16.836ZM12.3382 24.2787L17.9318 27.5081V21.0491L16.6786 20.3256V22.4019C16.6786 22.6047 16.5704 22.7922 16.3947 22.8937C16.3069 22.9444 16.2088 22.9698 16.1107 22.9698C16.0127 22.9698 15.9146 22.9444 15.8268 22.8937L13.8752 21.7669C13.6995 21.6655 13.5913 21.4781 13.5913 21.2751V18.5431L12.3381 17.8196L12.3382 24.2787ZM24.6613 24.2787V17.8196L19.0676 21.0492V27.5082L24.6613 24.2787Z" fill="#26D092"/>
</g>
<defs>
<clipPath id="clip0_3807_700">
<rect width="36.3462" height="36.3462" fill="white" transform="translate(0.326172 0.309082)"/>
</clipPath>
</defs>
</svg>
