<svg width="33" height="33" viewBox="0 0 33 33" fill="none" xmlns="http://www.w3.org/2000/svg">
<g clip-path="url(#clip0_3807_685)">
<path d="M32.0887 23.585C32.286 24.0453 31.9572 24.5057 31.4968 24.5057H23.9333V31.6088C23.9333 32.0034 23.6703 32.2665 23.2756 32.2665C22.9468 32.2665 22.618 32.0034 22.618 31.6088V24.5057H1.37449C0.979874 24.5057 0.716797 24.1769 0.716797 23.848C0.716797 23.5192 0.979874 23.1903 1.37449 23.1903H6.04411L11.3056 17.2711L12.0949 17.4684L12.358 18.1261L7.81987 23.1903C16.3041 23.1903 22.026 23.1903 30.5103 23.1246L27.2218 15.2323H19.1322L19.5268 13.9169H27.0245V10.3653H22.1576C21.7629 10.3653 21.4999 10.1023 21.4999 9.70765V7.93188L20.3818 9.1815C20.2503 8.98419 20.1187 8.78688 19.9214 8.65534C19.7899 8.5238 19.5926 8.39227 19.3953 8.3265L21.4999 5.9588V4.11727H8.74064L1.83487 11.023C1.5718 11.2861 1.17718 11.2861 0.914105 11.023C0.651028 10.76 0.651028 10.3653 0.914105 10.1023L8.01718 2.99919C8.14872 2.86765 8.28026 2.80188 8.47757 2.80188H21.4999V1.35496C21.4999 0.960343 21.7629 0.697266 22.1576 0.697266C22.4864 0.697266 22.8153 0.960343 22.8153 1.35496V9.11573H27.0245V6.22188C27.0245 5.89303 27.3533 5.56419 27.6822 5.56419H31.6283C32.023 5.56419 32.286 5.89303 32.286 6.22188C32.286 6.55073 32.023 6.87957 31.6283 6.87957H28.2741V14.5088L32.0887 23.585Z" fill="#26D092"/>
<path d="M19.2639 10.2994L16.1069 20.8225C16.0412 21.0856 15.7781 21.2829 15.515 21.2829C15.2519 21.2829 14.9889 21.0856 14.9231 20.8883L13.1473 16.3502L8.41195 15.2321C8.14887 15.1663 7.95156 14.9033 7.88579 14.6402C7.82002 14.3771 8.01733 14.114 8.28041 13.9825L18.4089 9.44441C18.6719 9.31287 18.935 9.37864 19.1323 9.57595C19.2639 9.77326 19.3296 10.0363 19.2639 10.2994Z" fill="#26D092"/>
</g>
<defs>
<clipPath id="clip0_3807_685">
<rect width="32.8846" height="32.8846" fill="white" transform="translate(0.0585938 0.0395508)"/>
</clipPath>
</defs>
</svg>
