<svg width="42" height="42" viewBox="0 0 42 42" fill="none" xmlns="http://www.w3.org/2000/svg">
<path d="M22.3627 40.6019H19.679C19.0978 40.6013 18.5406 40.3703 18.1297 39.9594C17.7187 39.5486 17.4875 38.9914 17.4868 38.4103V36.7635C15.5608 36.4385 13.71 35.7662 12.0245 34.7793L10.8298 35.9737C10.4183 36.384 9.86084 36.6145 9.2797 36.6145C8.69856 36.6145 8.14114 36.384 7.72964 35.9737L5.83209 34.0768C5.418 33.663 5.18995 33.1124 5.18995 32.527C5.18995 31.9417 5.418 31.3911 5.83209 30.977L6.82598 29.9834C5.678 28.34 4.84664 26.4969 4.37456 24.5487H2.84845C2.26729 24.5481 1.7101 24.317 1.29912 23.906C0.888142 23.4951 0.656945 22.938 0.65625 22.3568V19.674C0.656945 19.0929 0.888142 18.5357 1.29912 18.1248C1.7101 17.7139 2.26729 17.4828 2.84845 17.4822H4.22231C4.60642 15.5216 5.35179 13.6495 6.42042 11.9615L5.28577 10.8271C4.87167 10.4134 4.64362 9.86278 4.64362 9.27741C4.64362 8.69203 4.87167 8.14144 5.28577 7.72734L7.18331 5.83045C7.59481 5.42009 8.15223 5.18965 8.73337 5.18965C9.31451 5.18965 9.87194 5.42009 10.2834 5.83045L11.3932 6.93984C13.019 5.88603 14.8214 5.13367 16.714 4.71877V2.8478C16.7147 2.26666 16.9459 1.70954 17.3569 1.29867C17.7679 0.887812 18.3251 0.656771 18.9062 0.65625H21.5896C22.1708 0.656771 22.728 0.887812 23.139 1.29867C23.5499 1.70954 23.7811 2.26666 23.7818 2.8478V4.71942C25.599 5.11683 27.3337 5.82541 28.9095 6.81384L30.4392 5.28445C30.8507 4.87419 31.408 4.64381 31.9891 4.64381C32.5701 4.64381 33.1275 4.87419 33.539 5.28445L35.4365 7.18134C35.8506 7.59544 36.0787 8.1457 36.0787 8.73141C36.0787 9.31711 35.8506 9.86737 35.4365 10.2811L33.9478 11.7695C34.9371 13.2842 35.6649 14.9543 36.101 16.7101H38.4205C39.0016 16.7106 39.5588 16.9417 39.9698 17.3525C40.3808 17.7634 40.612 18.3205 40.6127 18.9016V21.5844C40.612 22.1656 40.3808 22.7227 39.9698 23.1336C39.5588 23.5445 39.0016 23.7757 38.4205 23.7763H36.2893C35.9467 25.5593 35.3055 27.2717 34.3927 28.8412L35.9835 30.4313C36.3976 30.8454 36.6256 31.3957 36.6256 31.9814C36.6256 32.5671 36.3976 33.1173 35.9835 33.5311L34.0859 35.428C33.6745 35.8383 33.1171 36.0688 32.5361 36.0688C31.955 36.0688 31.3976 35.8383 30.9862 35.428L29.6113 34.0535C28.0763 35.1307 26.3655 35.9326 24.5556 36.4232V38.4113C24.5549 39.6188 23.5715 40.6019 22.3627 40.6019ZM11.9247 33.2955C12.0448 33.2955 12.1659 33.3283 12.2735 33.3959C14.0814 34.5338 16.1134 35.2683 18.231 35.5494C18.3885 35.5705 18.5329 35.6481 18.6376 35.7677C18.7422 35.8873 18.7999 36.0408 18.7999 36.1997V38.4103C18.8003 38.6435 18.8931 38.8669 19.058 39.0317C19.2229 39.1965 19.4465 39.2892 19.6796 39.2894H22.3634C22.5965 39.2892 22.8201 39.1965 22.985 39.0317C23.1499 38.8669 23.2427 38.6435 23.2431 38.4103V35.9126C23.2431 35.7651 23.2928 35.6218 23.3843 35.506C23.4757 35.3903 23.6035 35.3087 23.7471 35.2744C25.7532 34.7986 27.6387 33.9112 29.2838 32.6685C29.4102 32.5732 29.5667 32.5268 29.7246 32.5379C29.8824 32.5489 30.031 32.6166 30.1429 32.7285L31.9141 34.4994C32.0792 34.6641 32.3029 34.7566 32.5361 34.7566C32.7692 34.7566 32.9929 34.6641 33.158 34.4994L35.0556 32.6025C35.1375 32.5211 35.2025 32.4243 35.2467 32.3176C35.2909 32.2109 35.3135 32.0965 35.3131 31.981C35.3131 31.7461 35.2216 31.5253 35.0556 31.3592L33.1022 29.4066C32.9974 29.3017 32.9312 29.1645 32.9143 29.0172C32.8975 28.8699 32.931 28.7213 33.0094 28.5954C34.0722 26.8957 34.7799 24.9985 35.09 23.018C35.1143 22.8635 35.1929 22.7227 35.3118 22.6211C35.4307 22.5195 35.582 22.4637 35.7384 22.4638H38.4211C38.6543 22.4636 38.8779 22.3709 39.0429 22.206C39.2078 22.0412 39.3006 21.8176 39.3008 21.5844V18.9016C39.3006 18.6685 39.2078 18.4449 39.0429 18.2801C38.8779 18.1153 38.6543 18.0227 38.4211 18.0226H35.5799C35.4297 18.0226 35.2841 17.9711 35.1673 17.8766C35.0505 17.7822 34.9696 17.6507 34.9381 17.5038C34.5205 15.5496 33.713 13.6996 32.5641 12.0645C32.4756 11.9381 32.4345 11.7845 32.448 11.6307C32.4615 11.477 32.5287 11.3329 32.6379 11.2238L34.5096 9.35287C34.5915 9.2715 34.6565 9.17466 34.7007 9.06798C34.7449 8.96129 34.7675 8.84689 34.7671 8.73141C34.7671 8.49647 34.6756 8.27564 34.5096 8.10961L32.612 6.21272C32.4469 6.04803 32.2232 5.95555 31.9901 5.95555C31.7569 5.95555 31.5332 6.04803 31.3681 6.21272L29.4623 8.11781C29.3547 8.22539 29.213 8.29221 29.0615 8.30681C28.91 8.32142 28.7581 8.28291 28.6319 8.19787C26.9349 7.05321 25.0199 6.27126 23.0068 5.901C22.8561 5.8731 22.7199 5.79331 22.6218 5.67548C22.5238 5.55764 22.47 5.4092 22.47 5.25591V2.8478C22.4694 2.61462 22.3764 2.39118 22.2114 2.22642C22.0464 2.06166 21.8228 1.96901 21.5896 1.96875H18.9062C18.6731 1.96892 18.4495 2.06157 18.2846 2.22637C18.1197 2.39117 18.0269 2.61465 18.0265 2.8478V5.25591C18.0265 5.40915 17.9728 5.55756 17.8748 5.67539C17.7769 5.79321 17.6407 5.87303 17.49 5.901C15.4043 6.2853 13.425 7.11166 11.6852 8.32453C11.5588 8.41231 11.4057 8.4529 11.2524 8.43923C11.0992 8.42556 10.9556 8.35848 10.8468 8.24972L9.3555 6.75905C9.19035 6.59434 8.96662 6.50185 8.73337 6.50185C8.50013 6.50185 8.2764 6.59434 8.11125 6.75905L6.2137 8.65594C6.1318 8.73741 6.06686 8.83431 6.02265 8.94104C5.97843 9.04777 5.95582 9.16221 5.95612 9.27773C5.95612 9.51234 6.04767 9.73317 6.2137 9.8992L7.7257 11.4109C7.83371 11.5188 7.9007 11.661 7.91513 11.813C7.92956 11.965 7.89054 12.1173 7.80478 12.2437C6.57866 14.0444 5.7641 16.093 5.41898 18.2441C5.39405 18.3979 5.31519 18.5378 5.19652 18.6388C5.07784 18.7398 4.9271 18.7953 4.77127 18.7953H2.84845C2.61534 18.7954 2.39178 18.888 2.22685 19.0527C2.06192 19.2175 1.9691 19.4409 1.96875 19.674V22.3568C1.9691 22.59 2.0619 22.8135 2.22681 22.9783C2.39172 23.1432 2.61528 23.2359 2.84845 23.2362H4.89956C5.05028 23.2361 5.19641 23.288 5.31341 23.383C5.4304 23.478 5.51113 23.6104 5.54203 23.7579C5.98682 25.8973 6.89826 27.9122 8.21133 29.6589C8.30595 29.7853 8.35183 29.9415 8.34056 30.099C8.32929 30.2565 8.26162 30.4047 8.14997 30.5163L6.76069 31.9052C6.67878 31.9867 6.61384 32.0836 6.56963 32.1903C6.52542 32.2971 6.50281 32.4115 6.50311 32.527C6.50311 32.7616 6.59466 32.9825 6.76069 33.1485L8.65823 35.0454C8.8233 35.2103 9.04706 35.3029 9.28036 35.3029C9.51366 35.3029 9.73742 35.2103 9.90248 35.0454L11.4611 33.4871C11.5219 33.4262 11.5942 33.3779 11.6738 33.3451C11.7533 33.3122 11.8386 33.2953 11.9247 33.2955Z" fill="#26D092"/>
<path fill-rule="evenodd" clip-rule="evenodd" d="M19.679 40.077C19.237 40.0766 18.8131 39.9008 18.5004 39.5882C18.1879 39.2758 18.0121 38.8516 18.0114 38.4098M21.589 1.18135C22.031 1.18181 22.4548 1.35756 22.7674 1.67006C23.0799 1.98247 23.2558 2.40666 23.2565 2.84852M35.8377 31.9811C35.8381 32.1655 35.8019 32.3483 35.7313 32.5187C35.6607 32.6891 35.557 32.8438 35.4263 32.9739M23.8678 35.7854C23.8394 35.7923 23.8141 35.8085 23.7959 35.8315C23.7776 35.8547 23.7677 35.8833 23.7677 35.9127M18.9061 2.49385H21.5889H18.9061ZM21.9446 2.84926L22.4696 2.84789H21.9446M18.9058 1.44385C18.5337 1.44412 18.1764 1.59202 17.9131 1.8551L18.9058 1.44385ZM17.9131 1.8551C17.6499 2.11817 17.5017 2.47493 17.5011 2.84711L17.9131 1.8551ZM17.5011 2.84711V5.2559V2.84711Z" fill="#26D092"/>
<path d="M20.6335 31.7704C14.6593 31.7704 9.79883 26.7724 9.79883 20.6286C9.79883 14.4848 14.6593 9.48682 20.6335 9.48682C26.6077 9.48682 31.4682 14.4848 31.4682 20.6286C31.4682 26.7724 26.6077 31.7704 20.6335 31.7704ZM20.6335 10.7996C15.3832 10.7996 11.1113 15.209 11.1113 20.629C11.1113 26.0489 15.3829 30.4583 20.6335 30.4583C25.8838 30.4583 30.1557 26.0489 30.1557 20.629C30.1557 15.209 25.8838 10.7996 20.6335 10.7996Z" fill="#26D092" stroke="#26D092" stroke-width="1.05"/>
<path d="M16.7487 25.3958C16.5748 25.3958 16.4009 25.3272 16.272 25.1907C13.8937 22.6789 13.8937 18.5924 16.272 16.0806C17.7308 14.5398 19.8157 13.876 21.8488 14.3065C22.019 14.3426 22.1679 14.4449 22.2629 14.5907C22.3578 14.7366 22.391 14.9142 22.3551 15.0844C22.3373 15.1688 22.3031 15.2488 22.2544 15.32C22.2057 15.3911 22.1434 15.4519 22.0711 15.4989C21.9988 15.5459 21.918 15.5782 21.8332 15.5939C21.7484 15.6096 21.6614 15.6084 21.5771 15.5904C19.9949 15.2554 18.368 15.7761 17.2252 16.983C15.3181 18.997 15.3181 22.2743 17.2252 24.2884C17.3133 24.3815 17.3723 24.4984 17.3947 24.6247C17.4172 24.751 17.4021 24.8811 17.3514 24.9989C17.3008 25.1167 17.2167 25.2171 17.1095 25.2876C17.0024 25.3581 16.877 25.3957 16.7487 25.3958ZM20.6157 27.08C19.7462 27.08 18.8714 26.8874 18.052 26.4907C17.8954 26.4148 17.7753 26.2798 17.7182 26.1154C17.6611 25.951 17.6717 25.7706 17.7475 25.614C17.8234 25.4573 17.9584 25.3372 18.1229 25.2801C18.2873 25.223 18.4677 25.2336 18.6243 25.3095C20.4428 26.1905 22.6209 25.7731 24.0436 24.2706C25.9507 22.2563 25.9507 18.9793 24.0436 16.9649C23.8451 16.7687 23.5892 16.5262 23.3103 16.3297C23.2384 16.2806 23.1771 16.2178 23.1298 16.1448C23.0824 16.0718 23.0501 15.9902 23.0346 15.9046C23.0191 15.819 23.0208 15.7312 23.0396 15.6463C23.0583 15.5614 23.0938 15.481 23.1439 15.4099C23.1939 15.3388 23.2576 15.2783 23.3313 15.2321C23.4049 15.1858 23.487 15.1547 23.5728 15.1404C23.6586 15.1261 23.7464 15.1291 23.8311 15.1491C23.9157 15.169 23.9955 15.2056 24.0659 15.2567C24.4246 15.509 24.73 15.7981 24.982 16.0478C27.3747 18.5744 27.3747 22.6615 24.9968 25.1733C23.8162 26.4198 22.2255 27.08 20.6157 27.08Z" fill="#26D092"/>
<path d="M16.7497 25.3952L16.7182 25.3945L15.2537 25.3243C15.0799 25.316 14.9165 25.239 14.7995 25.1102C14.6825 24.9814 14.6214 24.8114 14.6297 24.6376C14.647 24.2756 14.9535 23.9915 15.3164 24.0135L16.0931 24.0505V23.1219C16.0931 22.9479 16.1622 22.781 16.2853 22.6579C16.4084 22.5348 16.5753 22.4657 16.7493 22.4657C16.9234 22.4657 17.0903 22.5348 17.2134 22.6579C17.3364 22.781 17.4056 22.9479 17.4056 23.1219V24.7389C17.4054 24.9129 17.3363 25.0796 17.2133 25.2027C17.0903 25.3257 16.9236 25.3949 16.7497 25.3952ZM23.7059 18.0311C23.5319 18.0311 23.3649 17.9619 23.2419 17.8389C23.1188 17.7158 23.0497 17.5489 23.0497 17.3748V15.7752C23.0497 15.6871 23.0674 15.5999 23.1019 15.5187C23.1363 15.4376 23.1867 15.3643 23.2501 15.3031C23.3788 15.179 23.5501 15.1095 23.7295 15.1196L25.194 15.1725C25.3637 15.1845 25.5222 15.262 25.636 15.3885C25.7497 15.5151 25.8099 15.681 25.8037 15.851C25.7976 16.0211 25.7257 16.1822 25.6031 16.3003C25.4805 16.4183 25.3169 16.4842 25.1467 16.484L24.3622 16.4558V17.3748C24.3622 17.5489 24.293 17.7158 24.17 17.8389C24.0469 17.9619 23.88 18.0311 23.7059 18.0311Z" fill="#26D092"/>
</svg>
