<svg width="38" height="41" viewBox="0 0 38 41" fill="none" xmlns="http://www.w3.org/2000/svg">
<path fill-rule="evenodd" clip-rule="evenodd" d="M3.44543 32.5015C3.44543 35.4228 5.81374 37.7954 8.73512 37.7954H29.1296C29.9359 37.7954 30.5945 38.4497 30.5945 39.2561C30.5945 40.0624 29.9359 40.7209 29.1296 40.7209H8.73512C4.19692 40.7209 0.515625 37.0397 0.515625 32.5015V8.94044C0.515625 4.40224 4.19686 0.720947 8.73512 0.720947H28.2515C32.7897 0.720947 36.471 4.40219 36.471 8.94044V14.0444C36.471 14.8507 35.8167 15.505 35.0061 15.505C34.1956 15.505 33.5412 14.8507 33.5412 14.0444V8.94044C33.5412 6.01485 31.1729 3.64654 28.2516 3.64654H8.73518C5.81385 3.64654 3.44549 6.01485 3.44549 8.94044L3.44543 32.5015ZM22.5311 12.1238C16.4056 12.1238 11.4158 17.0462 11.4158 23.1462C11.4158 29.2461 16.4058 34.1648 22.5311 34.1648C24.9543 34.1648 27.2002 33.3922 29.0279 32.0835L34.9212 38.8294C35.4531 39.4373 36.3776 39.5006 36.9855 38.9687C37.5934 38.4368 37.6568 37.5123 37.1248 36.9001L31.1641 30.0823C32.7134 28.1911 33.6421 25.7763 33.6421 23.1462C33.6421 17.046 28.6522 12.1238 22.5311 12.1238ZM14.3414 23.1462C14.3414 18.6881 17.993 15.0531 22.5311 15.0531C27.0692 15.0531 30.7166 18.6879 30.7166 23.1462C30.7166 27.6044 27.0649 31.2392 22.5311 31.2392C17.9974 31.2392 14.3414 27.6002 14.3414 23.1462Z" fill="#26D092"/>
</svg>
