<svg width="39" height="27" viewBox="0 0 39 27" fill="none" xmlns="http://www.w3.org/2000/svg">
<path d="M26.7673 21.622H12.2315C12.0002 21.622 11.7784 21.5301 11.6148 21.3665C11.4513 21.203 11.3594 20.9812 11.3594 20.7498V12.0284C11.3594 11.7971 11.4513 11.5753 11.6148 11.4117C11.7784 11.2481 12.0002 11.1562 12.2315 11.1562H26.7673C26.9986 11.1562 27.2204 11.2481 27.384 11.4117C27.5475 11.5753 27.6394 11.7971 27.6394 12.0284V20.7498C27.6394 20.9812 27.5475 21.203 27.384 21.3665C27.2204 21.5301 26.9986 21.622 26.7673 21.622ZM13.1037 19.8777H25.8951V12.9005H13.1037V19.8777Z" fill="#26D092"/>
<path d="M16.0117 12.0283H17.756V16.0983H16.0117V12.0283ZM21.2446 12.0283H22.9889V16.0983H21.2446V12.0283ZM18.6282 16.389H20.3724V20.7498H18.6282V16.389Z" fill="#26D092"/>
<path d="M12.2324 15.2261H26.7682V16.9704H12.2324V15.2261Z" fill="#26D092"/>
<path d="M30.2577 26.2734H8.74474C7.8968 26.2727 7.08377 25.9356 6.48419 25.3361C5.88461 24.7365 5.54749 23.9234 5.54688 23.0755V3.8883C5.54749 3.04036 5.88461 2.22733 6.48419 1.62774C7.08377 1.02816 7.8968 0.691046 8.74474 0.69043H30.2577C31.1056 0.691046 31.9186 1.02816 32.5182 1.62774C33.1178 2.22733 33.4549 3.04036 33.4555 3.8883V23.0755C33.4549 23.9234 33.1178 24.7365 32.5182 25.3361C31.9186 25.9356 31.1056 26.2727 30.2577 26.2734ZM8.74474 2.43472C7.94353 2.43472 7.29117 3.08709 7.29117 3.8883V23.0755C7.29117 23.8767 7.94353 24.5291 8.74474 24.5291H30.2577C31.0589 24.5291 31.7112 23.8767 31.7112 23.0755V3.8883C31.7112 3.08709 31.0589 2.43472 30.2577 2.43472H8.74474Z" fill="#26D092"/>
<path d="M6.41812 4.76025H32.5825V6.50454H6.41812V4.76025ZM0.894531 24.5289H38.1061V26.2732H0.894531V24.5289Z" fill="#26D092"/>
</svg>
