<svg width="42" height="39" viewBox="0 0 42 39" fill="none" xmlns="http://www.w3.org/2000/svg">
<path d="M16.4634 32.831H3.22167C2.12691 32.831 1.23633 31.9407 1.23633 30.846C1.23633 29.7512 2.12691 28.8604 3.22167 28.8604H16.4634C17.5581 28.8604 18.4487 29.7512 18.4487 30.846C18.4487 31.9407 17.5581 32.831 16.4634 32.831ZM3.22167 29.7868C2.6378 29.7868 2.1628 30.2621 2.1628 30.846C2.1628 31.4299 2.63779 31.9046 3.22167 31.9046H16.4634C17.0472 31.9046 17.5222 31.4299 17.5222 30.846C17.5222 30.2621 17.0473 29.7868 16.4634 29.7868H3.22167Z" fill="#26D092" stroke="#26D092"/>
<path d="M38.5368 12.637H17.1109C15.8823 12.637 14.8828 11.6376 14.8828 10.4089V3.39706C14.8828 2.1684 15.8823 1.16895 17.1109 1.16895H38.5368C39.7654 1.16895 40.7649 2.1684 40.7649 3.39706V10.4089C40.7649 11.6376 39.7654 12.637 38.5368 12.637ZM17.1109 2.09542C16.3932 2.09542 15.8093 2.67928 15.8093 3.39706V10.4089C15.8093 11.1267 16.3932 11.7106 17.1109 11.7106H38.5368C39.2545 11.7106 39.8384 11.1267 39.8384 10.4089V3.39706C39.8384 2.67928 39.2545 2.09542 38.5368 2.09542H17.1109Z" fill="#26D092" stroke="#26D092"/>
<path d="M16.4634 19.2383H3.22167C2.12691 19.2383 1.23633 18.3474 1.23633 17.2526C1.23633 16.1579 2.12691 15.2676 3.22167 15.2676H16.4634C17.5581 15.2676 18.4487 16.1579 18.4487 17.2526C18.4487 18.3474 17.5581 19.2383 16.4634 19.2383ZM3.22167 16.194C2.6378 16.194 2.1628 16.6687 2.1628 17.2526C2.1628 17.8365 2.63779 18.3118 3.22167 18.3118H16.4634C17.0472 18.3118 17.5222 17.8365 17.5222 17.2526C17.5222 16.6687 17.0473 16.194 16.4634 16.194H3.22167Z" fill="#26D092" stroke="#26D092"/>
<path d="M16.4634 26.0345H3.22167C2.12691 26.0345 1.23633 25.1442 1.23633 24.0495C1.23633 22.9547 2.12691 22.0645 3.22167 22.0645H16.4634C17.5581 22.0645 18.4487 22.9547 18.4487 24.0495C18.4487 25.1442 17.5581 26.0345 16.4634 26.0345ZM3.22167 22.9909C2.6378 22.9909 2.1628 23.4656 2.1628 24.0495C2.1628 24.6334 2.63779 25.1081 3.22167 25.1081H16.4634C17.0472 25.1081 17.5222 24.6334 17.5222 24.0495C17.5222 23.4656 17.0473 22.9909 16.4634 22.9909H3.22167Z" fill="#26D092" stroke="#26D092"/>
<path d="M7.2035 13.1147C3.9132 13.1147 1.23633 10.4324 1.23633 7.13611C1.23633 3.84582 3.9132 1.16895 7.2035 1.16895C10.4938 1.16895 13.1707 3.84582 13.1707 7.13611C13.1707 10.4324 10.4938 13.1147 7.2035 13.1147ZM7.2035 2.09542C4.42408 2.09542 2.1628 4.3567 2.1628 7.13611C2.1628 9.92216 4.42408 12.1883 7.2035 12.1883C9.98291 12.1883 12.2442 9.92216 12.2442 7.13611C12.2442 4.3567 9.98291 2.09542 7.2035 2.09542Z" fill="#26D092" stroke="#26D092"/>
<path d="M6.69862 8.79668C6.15245 8.79668 5.60749 8.58979 5.19311 8.17541C4.3547 7.3364 4.355 5.97142 5.19341 5.13241C5.59844 4.72708 6.13858 4.50391 6.714 4.50391C7.28973 4.50451 7.83017 4.72768 8.2355 5.13301C8.64113 5.53834 8.8622 6.07758 8.85858 6.65119C8.85496 7.22179 8.62967 7.75862 8.22464 8.16395C7.80333 8.58557 7.25022 8.79668 6.69862 8.79668ZM6.714 5.43038C6.38588 5.43038 6.07856 5.55704 5.84845 5.78746C5.37104 6.26517 5.37104 7.04266 5.84845 7.52036C6.31923 7.99084 7.09159 7.98783 7.5696 7.50891C7.80121 7.27729 7.92999 6.97028 7.9321 6.64577C7.93421 6.32127 7.80935 6.01667 7.58045 5.78806C7.35004 5.55765 7.04213 5.43038 6.714 5.43038Z" fill="#26D092"/>
<path d="M9.37836 9.77959C9.25984 9.77959 9.14131 9.73435 9.05084 9.64387L7.57126 8.16429C7.39031 7.98334 7.39031 7.6902 7.57126 7.50925C7.75221 7.3283 8.04535 7.3283 8.22631 7.50925L9.70589 8.98883C9.88684 9.16978 9.88684 9.46292 9.70589 9.64387C9.6154 9.73435 9.49688 9.77959 9.37836 9.77959Z" fill="#26D092"/>
<path d="M30.4767 38.3441C24.8054 38.3441 20.1914 33.7208 20.1914 28.0377C20.1914 22.3661 24.8054 17.7524 30.4767 17.7524C36.1483 17.7524 40.7622 22.3661 40.7622 28.0377C40.7622 33.7208 36.1483 38.3441 30.4767 38.3441ZM30.4767 18.6789C25.3162 18.6789 21.1179 22.877 21.1179 28.0377C21.1179 33.2099 25.3162 37.4176 30.4767 37.4176C35.6374 37.4176 39.8358 33.2099 39.8358 28.0377C39.8358 22.877 35.6374 18.6789 30.4767 18.6789Z" fill="#26D092" stroke="#26D092"/>
</svg>
